<?xml version="1.0" encoding="utf-8"?>
<!-- Generator: Adobe Illustrator 28.0.0, SVG Export Plug-In . SVG Version: 6.00 Build 0)  -->
<svg version="1.1" id="Layer_1" xmlns="http://www.w3.org/2000/svg" xmlns:xlink="http://www.w3.org/1999/xlink" x="0px" y="0px"
	 viewBox="0 0 48 48" style="enable-background:new 0 0 48 48;" xml:space="preserve">
<style type="text/css">
	.st0{fill:#F4F3F1;}
</style>
<path class="st0" d="M24.2,42c-0.6,0-1.1-0.2-1.5-0.6c-0.4-0.4-0.6-0.9-0.6-1.5c0-0.2,0.1-0.5,0.2-0.7c0.1-0.2,0.2-0.5,0.4-0.7
	l8.8-8.8c0.2-0.2,0.2-0.3,0.2-0.5s-0.1-0.4-0.2-0.5c-0.2-0.2-0.3-0.2-0.5-0.2s-0.4,0.1-0.5,0.2l-8.7,8.7c-0.2,0.2-0.4,0.4-0.7,0.5
	c-0.2,0.1-0.5,0.1-0.8,0.1c-0.6,0-1-0.2-1.4-0.6c-0.4-0.4-0.6-0.9-0.6-1.4c0-0.3,0-0.6,0.1-0.8c0.1-0.2,0.2-0.4,0.4-0.6l8.7-8.7
	c0.2-0.2,0.2-0.3,0.2-0.5s-0.1-0.4-0.2-0.5s-0.3-0.2-0.5-0.2s-0.4,0.1-0.5,0.2l-8.7,8.7c-0.2,0.2-0.4,0.4-0.7,0.5
	c-0.2,0.1-0.5,0.2-0.8,0.2c-0.5,0-1-0.2-1.4-0.6c-0.4-0.4-0.6-0.9-0.6-1.4c0-0.3,0.1-0.5,0.1-0.8c0.1-0.2,0.2-0.4,0.4-0.6l8.8-8.8
	c0.2-0.2,0.2-0.3,0.2-0.5s-0.1-0.4-0.2-0.5c-0.2-0.2-0.3-0.2-0.5-0.2c-0.2,0-0.4,0.1-0.5,0.2L14,29.7c-0.2,0.2-0.4,0.3-0.6,0.4
	c-0.2,0.1-0.5,0.2-0.9,0.2c-0.6,0-1-0.2-1.4-0.6c-0.4-0.4-0.6-0.8-0.6-1.4c0-0.3,0.1-0.5,0.2-0.8c0.1-0.2,0.2-0.5,0.4-0.7l10.2-10.2
	c0.3-0.3,0.6-0.4,1-0.4c0.4,0,0.7,0.2,1,0.4l5.4,5.4c0.4,0.4,0.8,0.7,1.2,0.9c0.4,0.2,1,0.4,1.6,0.4c1.1,0,2-0.3,2.7-1
	c0.7-0.7,1.1-1.6,1.1-2.8c0-0.5-0.1-0.9-0.3-1.4s-0.5-0.9-0.9-1.3L25.1,8l0.3-0.3c0.6-0.5,1.2-0.9,1.9-1.2C28,6.1,28.7,6,29.4,6
	c0.9,0,1.7,0.1,2.4,0.4c0.7,0.3,1.4,0.7,2,1.3l8.5,8.5c0.6,0.6,1,1.3,1.3,2c0.3,0.7,0.4,1.6,0.4,2.5c0,0.7-0.1,1.3-0.5,2
	c-0.3,0.7-0.7,1.3-1.3,1.9L25.6,41.4c-0.3,0.3-0.5,0.4-0.7,0.5C24.7,42,24.5,42,24.2,42z M8.4,27.4l-2.7-2.7c-0.6-0.5-1-1.2-1.3-1.9
	C4.2,22.1,4,21.3,4,20.5c0-0.9,0.2-1.7,0.5-2.4c0.3-0.7,0.8-1.4,1.2-1.9l8.4-8.5c0.5-0.5,1.2-1,1.9-1.3C16.8,6.2,17.6,6,18.2,6
	c0.9,0,1.7,0.1,2.4,0.4c0.7,0.2,1.4,0.7,2.1,1.4L33,18c0.3,0.3,0.5,0.6,0.6,0.9c0.1,0.3,0.2,0.5,0.2,0.8c0,0.7-0.2,1.2-0.6,1.6
	s-1,0.6-1.7,0.6c-0.3,0-0.6-0.1-0.9-0.2c-0.3-0.2-0.6-0.4-0.9-0.7l-5.3-5.3c-0.6-0.6-1.3-0.8-2.1-0.8c-0.8,0-1.5,0.3-2.1,0.8
	L8.4,27.4z"/>
</svg>
